<?xml version="1.0" standalone="no"?>
<svg xmlns:xlink="http://www.w3.org/1999/xlink" id="wave" style="transform:rotate(180deg); transition: 0.3s" viewBox="0 0 1440 310" version="1.1" xmlns="http://www.w3.org/2000/svg"><defs><linearGradient id="sw-gradient-0" x1="0" x2="0" y1="1" y2="0"><stop stop-color="rgba(127.054, 62.139, 143.758, 1)" offset="0%"/><stop stop-color="rgba(212.121, 174.538, 246.213, 1)" offset="100%"/></linearGradient></defs><path style="transform:translate(0, 0px); opacity:1" fill="url(#sw-gradient-0)" d="M0,155L30,175.7C60,196,120,238,180,248C240,258,300,238,360,222.2C420,207,480,196,540,191.2C600,186,660,186,720,175.7C780,165,840,145,900,134.3C960,124,1020,124,1080,108.5C1140,93,1200,62,1260,56.8C1320,52,1380,72,1440,93C1500,114,1560,134,1620,155C1680,176,1740,196,1800,217C1860,238,1920,258,1980,268.7C2040,279,2100,279,2160,258.3C2220,238,2280,196,2340,186C2400,176,2460,196,2520,170.5C2580,145,2640,72,2700,72.3C2760,72,2820,145,2880,160.2C2940,176,3000,134,3060,118.8C3120,103,3180,114,3240,103.3C3300,93,3360,62,3420,62C3480,62,3540,93,3600,118.8C3660,145,3720,165,3780,175.7C3840,186,3900,186,3960,180.8C4020,176,4080,165,4140,149.8C4200,134,4260,114,4290,103.3L4320,93L4320,310L4290,310C4260,310,4200,310,4140,310C4080,310,4020,310,3960,310C3900,310,3840,310,3780,310C3720,310,3660,310,3600,310C3540,310,3480,310,3420,310C3360,310,3300,310,3240,310C3180,310,3120,310,3060,310C3000,310,2940,310,2880,310C2820,310,2760,310,2700,310C2640,310,2580,310,2520,310C2460,310,2400,310,2340,310C2280,310,2220,310,2160,310C2100,310,2040,310,1980,310C1920,310,1860,310,1800,310C1740,310,1680,310,1620,310C1560,310,1500,310,1440,310C1380,310,1320,310,1260,310C1200,310,1140,310,1080,310C1020,310,960,310,900,310C840,310,780,310,720,310C660,310,600,310,540,310C480,310,420,310,360,310C300,310,240,310,180,310C120,310,60,310,30,310L0,310Z"/></svg>