<?xml version="1.0" standalone="no"?>
<svg xmlns:xlink="http://www.w3.org/1999/xlink" id="wave" style="transform:rotate(0deg); transition: 0.3s" viewBox="0 0 1440 370" version="1.1" xmlns="http://www.w3.org/2000/svg"><defs><linearGradient id="sw-gradient-0" x1="0" x2="0" y1="1" y2="0"><stop stop-color="rgba(254.869, 162.052, 255, 1)" offset="0%"/><stop stop-color="rgba(112.713, 93.966, 120.99, 1)" offset="100%"/></linearGradient></defs><path style="transform:translate(0, 0px); opacity:1" fill="url(#sw-gradient-0)" d="M0,148L40,172.7C80,197,160,247,240,277.5C320,308,400,321,480,277.5C560,234,640,136,720,135.7C800,136,880,234,960,228.2C1040,222,1120,111,1200,67.8C1280,25,1360,49,1440,49.3C1520,49,1600,25,1680,24.7C1760,25,1840,49,1920,74C2000,99,2080,123,2160,111C2240,99,2320,49,2400,55.5C2480,62,2560,123,2640,154.2C2720,185,2800,185,2880,209.7C2960,234,3040,284,3120,302.2C3200,321,3280,308,3360,271.3C3440,234,3520,173,3600,123.3C3680,74,3760,37,3840,67.8C3920,99,4000,197,4080,234.3C4160,271,4240,247,4320,222C4400,197,4480,173,4560,191.2C4640,210,4720,271,4800,252.8C4880,234,4960,136,5040,123.3C5120,111,5200,185,5280,185C5360,185,5440,111,5520,86.3C5600,62,5680,86,5720,98.7L5760,111L5760,370L5720,370C5680,370,5600,370,5520,370C5440,370,5360,370,5280,370C5200,370,5120,370,5040,370C4960,370,4880,370,4800,370C4720,370,4640,370,4560,370C4480,370,4400,370,4320,370C4240,370,4160,370,4080,370C4000,370,3920,370,3840,370C3760,370,3680,370,3600,370C3520,370,3440,370,3360,370C3280,370,3200,370,3120,370C3040,370,2960,370,2880,370C2800,370,2720,370,2640,370C2560,370,2480,370,2400,370C2320,370,2240,370,2160,370C2080,370,2000,370,1920,370C1840,370,1760,370,1680,370C1600,370,1520,370,1440,370C1360,370,1280,370,1200,370C1120,370,1040,370,960,370C880,370,800,370,720,370C640,370,560,370,480,370C400,370,320,370,240,370C160,370,80,370,40,370L0,370Z"/></svg>